<?xml version="1.0" encoding="UTF-8"?>
<svg id="Layer_1" xmlns="http://www.w3.org/2000/svg" xmlns:xlink="http://www.w3.org/1999/xlink" version="1.1" viewBox="0 0 512 512">
  <!-- Generator: Adobe Illustrator 29.0.1, SVG Export Plug-In . SVG Version: 2.1.0 Build 192)  -->
  <defs>
    <style>
      .st0 {
        fill: #8b0000;
      }

      .st1 {
        display: none;
        fill: url(#linear-gradient);
      }
    </style>
    <linearGradient id="linear-gradient" x1="256" y1="512" x2="256" y2="0" gradientUnits="userSpaceOnUse">
      <stop offset="0" stop-color="#0d0d0f"/>
      <stop offset="1" stop-color="#3d3d55"/>
    </linearGradient>
  </defs>
  <rect class="st1" width="512" height="512"/>
  <path class="st0" d="M512,315.1c0,36.8-50.4,63.4-151.2,79.8l-84,13.6c5.8,8.8,8.2,18.1,7.1,27.9-2.3-4-5.5-7.6-9.6-10.9-3.4-2.5-6.2,18.6-6.2,38.2s1.6,12,4.9,15.3c2.5,1.5,5.8.7,9.3-.5,0,0,4.9,12.5,4.9,16.4s-3.3,6.5-3.3,6.5c-6.2,3.6-14.9,5.4-22.4,5.5s-9.2-.4-15.3-4.3-12.7-13.2-13.1-19.1,5.2-11.5,11.4-11.5c3.2-.2,5,1.1,5,1.1,3.3-.4,4.9-1.8,4.9-4.4,0-8.7-3.5-28-10.4-57.9-.6-1.8-2.9-2.8-7.1-2.7-109.2,0-185-12.2-227.6-36.6,9.8,0,14.6.4,14.7-1.6,0-6-8-12-24-19.6,19.3,8.7,48.8,16.2,88.4,22.4,3.2.6,3.8-2.7.6-3.3l-47.5-13.6c-19.7-5.8-31.5-15.3-35.5-28.4-3.5-15.5,25.8-26,61.1-34.4,25.8-6.2,50.9-9.3,75.3-9.3s39.3.9,86.2,2.7c1.4-2.5,2.2-5.6,2.2-9.3s-1.1-13.1-3.3-24l-4.9-24.6c-9.8-3.3-21.3-4.9-34.4-4.9s-10.9.3-19.7.8c-8.7.6-15.3.8-19.6.8-8.7,0-29.5-3.5-29.9-3.1,3.8-1.4,6.7-3,4.8-5.1-12-2.9-18-6-18-9.3s3.9-4.5,11.7-9.3,12.8-7.1,15-7.1c8.3-3.5,23.4-3.4,46.1-10.1,22.8-6.7,34.1-11.2,34.1-13.4,0-25.1-3.1-50.4-11.5-84.9,0,0-1.6-7.6-6.5-10s-13.7-2.6-13.7-2.6c-21.1,0-39.2,3.5-63.2,8.6-29.1,6.2-50,14-62.8,23.5-7.7,5.8,17.4,7.3,20.7,9.3s3.6,1.1,3.3,6-11.8,5.5-10.4,9.3,7.6,4.9,10.9,4.9,2.5-.5,4.4-1.6c.7-.4,2.4.4,4.9,2.2-.8,5.6-29.5,15.5-38.8,15.3s-12-8.8-12-8.8c-1.1.4-2,.6-2.7.6-1.8,0-3.5-.7-4.9-2.2-3.7-5.5-5.8-11.7-6.6-18.6-1.9-13.3,56.8-45.7,113.5-59.2l31.7-4.4c16.7-2.2,25.3-4.2,25.6-6,4-4.1-10.4-9.7-9.3-17-.1-5.1,18.2-10.8,24-12.6,0,0-.2-6,3.3-9.3s10.7-4.9,22.4-4.9,68.1,22.4,71.5,34.5c1.8,5.5,5.3,9.7,10.4,12.6,97.1,9.8,145.8,34.8,145.8,74.9s-20,45.5-60.1,55.7l-89,22.4,77.5,15.8c30.9,6.2,56.8,15.9,77.5,29,28.7,17.9,43.1,39.5,43.1,65ZM242.4,347.4c0-6.6-.5-42.3-16.9-44.2-23.3-3.6-49.1-5.5-77.5-5.5-54.2,0-81.3,10.4-81.3,31.1s18.7,18.7,56.2,23.4c22.9,2.9,46,6.5,70.4,6.5s28.9.2,47.5-3.2c1.9-.9,1.6-7.1,1.6-8.2ZM220,130.7l-5.5-50.8c-2.5.7-3.8,3.3-3.8,7.6,0,22.6,3.1,36.9,9.3,43.1ZM224.9,169c-1.8-16-3.1-28-3.8-36-1.1,15.7-4.4,17.5-1.6,26.7s2.2,9.3,5.5,9.3ZM242.4,254.1c0-14.9-1.8-24.2-5.5-27.9-1.8,4.7-3.3,9.4-3.3,13.1,0,14.9,2.4,27.3,6,38.2,0-2.5.4-6.4,1.4-11.7.9-5.3,1.3-9.2,1.3-11.7ZM426.8,287.4c0-12.7-14-25.5-42-38.2-24.7-11.3-62.6-20.7-99.3-21.8-1.1,0-2.7-.5-7.1,1.6s-12.6,54.1-4.9,58.9c32.7,7.6,53.9,14.9,63.3,21.8,1.4,2.4-11.8-1.1-21-4.3-9.2-3.2-26.8-7.6-25.4-4.5l71.5,31.2c12.7-3.3,25.6-8.7,38.7-16.4,17.5-10.2,26.2-19.6,26.2-28.4ZM336.8,340.3c-27.3-12.4-51.6-24.8-60-25.7-3-.4-3,4.6-3,8.2,0,8.4-.4,26.7,8,28.9,1.8.4,4,.5,6.5.5,10.2,0,26.4-4,48.6-12ZM396.3,106.7c0-12.4-11.2-22.2-33.5-29.5-16.9-5.5-33.3-8.1-49.2-8.2s-28.3,11.1-29.7,12.6c5.8,6.5,12,32.9,4.3,55.2-3.4,8.7-6.9,14.1-4.3,25.6l67.1-14.7c30.2-6.6,45.3-20.2,45.3-41Z"/>
</svg>